# xmcd
#
# Track frame offsets:
#	150
#	8387
#	18412
#	35808
#	48420
#	61455
#	79640
#	86903
#	96631
#	104556
#	120459
#	139383
#	158082
#	175037
#	193914
#	212288
#	229508
#	243897
#	258386
#	271029
#	282538
#	295918
#	305273
#	316985
#	328161
#	343733
#	352587
#
# Disc length: 4798 seconds
#
# Revision: 0
# Processed by: cddbd v1.5.1PL2 Copyright (c) Steve Scherf et al.
# Submitted via: EasyCDDAExtractor 9.0.0.1
#
DISCID=8112bc1b
DTITLE=Big Pun - In Memory Of...
DYEAR=2004
DGENRE=Hip-Hop
TTITLE0=The Rain and The Sun
TTITLE1=The Nicest (Prod. By J-Love)
TTITLE2=Brave In The Heart (Featuring Fat Joe, Triple Seis and Prospect)
TTITLE3=Whatcha Gon Do
TTITLE4=My World
TTITLE5=You Ain't A Killa
TTITLE6=Rhyme 4 Rhyme (Featuring Cormega)
TTITLE7=Best Behavior (Featuring Fat Joe)
TTITLE8=Nigga Shit
TTITLE9=Tres Leches (Remix) (Featuring Prodigy and Inspectah Deck)
TTITLE10=Drop It Heavy (Featuring Krs-One and AG)
TTITLE11=Symphony 2000 (Featuring Kool G. Rap, KRS-One and Truck Turner)
TTITLE12=Wishful Thinking (Featuring Kool G. Rap, Fat Joe and B Real)
TTITLE13=Firewater (Featuring Raekwon, Fat Joe and Armageddon)
TTITLE14=How We Roll (Original Version)
TTITLE15=Mama (Original Version)
TTITLE16=Clap Your Hands (Featuring Noreaga and Royal Flush)
TTITLE17=Loco Bananas
TTITLE18=Cheat On You (Featuring Cuban Link)
TTITLE19=Must Be The Music (Featuring Cuban Link)
TTITLE20=100 %
TTITLE21=The Mission (Featuring Digital Underground)
TTITLE22=Off The Books (Featuring Beatnuts and Cuban Link)
TTITLE23=Toe 2 Toe (Featuring Cuban Link)
TTITLE24=Twinz (Featuring Fat Joe)
TTITLE25=Let Em Know (Featuring Fat Joe)
TTITLE26=Crack and Pun '95 (Featuring Fat Joe)
EXTD=
EXTT0=
EXTT1=
EXTT2=
EXTT3=
EXTT4=
EXTT5=
EXTT6=
EXTT7=
EXTT8=
EXTT9=
EXTT10=
EXTT11=
EXTT12=
EXTT13=
EXTT14=
EXTT15=
EXTT16=
EXTT17=
EXTT18=
EXTT19=
EXTT20=
EXTT21=
EXTT22=
EXTT23=
EXTT24=
EXTT25=
EXTT26=
PLAYORDER=
